<svg width="27" height="28" viewBox="0 0 27 28" fill="none" xmlns="http://www.w3.org/2000/svg">
<path d="M22.1063 10.67L16.6613 10.1975L14.535 5.19125C14.1525 4.28 12.8475 4.28 12.465 5.19125L10.3387 10.2088L4.905 10.67C3.915 10.7487 3.51 11.9862 4.26375 12.6388L8.3925 16.2163L7.155 21.5263C6.93 22.4938 7.97625 23.2588 8.83125 22.7413L13.5 19.9288L18.1688 22.7525C19.0238 23.27 20.07 22.505 19.845 21.5375L18.6075 16.2163L22.7362 12.6388C23.49 11.9862 23.0963 10.7487 22.1063 10.67ZM13.5 17.825V7.3625L15.4238 11.9075L20.3513 12.335L16.6163 15.575L17.7413 20.39L13.5 17.825Z" fill="#323232"/>
</svg>
