<svg width="24" height="24" viewBox="0 0 24 24" fill="none" xmlns="http://www.w3.org/2000/svg">
<path d="M12.0001 2.3999C10.0905 2.3999 8.25918 3.15847 6.90892 4.50873C5.55866 5.859 4.80009 7.69034 4.80009 9.5999V13.9031L3.95169 14.7515C3.78391 14.9193 3.66967 15.1331 3.62339 15.3659C3.5771 15.5986 3.60087 15.8398 3.69167 16.0591C3.78248 16.2783 3.93624 16.4657 4.13354 16.5976C4.33083 16.7294 4.56279 16.7999 4.80009 16.7999H19.2001C19.4374 16.7999 19.6693 16.7294 19.8666 16.5976C20.0639 16.4657 20.2177 16.2783 20.3085 16.0591C20.3993 15.8398 20.4231 15.5986 20.3768 15.3659C20.3305 15.1331 20.2163 14.9193 20.0485 14.7515L19.2001 13.9031V9.5999C19.2001 7.69034 18.4415 5.859 17.0913 4.50873C15.741 3.15847 13.9096 2.3999 12.0001 2.3999ZM12.0001 21.5999C11.0453 21.5999 10.1296 21.2206 9.4545 20.5455C8.77937 19.8704 8.40009 18.9547 8.40009 17.9999H15.6001C15.6001 18.9547 15.2208 19.8704 14.5457 20.5455C13.8705 21.2206 12.9549 21.5999 12.0001 21.5999Z" fill="#6B7280"/>
</svg>
