<svg width="21" height="22" viewBox="0 0 21 22" fill="none" xmlns="http://www.w3.org/2000/svg">
<path d="M14.9537 4.4901C14.3412 3.58885 13.6412 2.74885 12.8537 1.99635C12.5475 1.69885 12.0312 1.97885 12.1187 2.39885C12.285 3.22135 12.46 4.30635 12.46 5.2776C12.46 7.0801 11.2787 8.54135 9.47625 8.54135C8.12875 8.54135 7.02625 7.7276 6.545 6.56385C6.4575 6.38885 6.4225 6.28385 6.37 6.09135C6.27375 5.72385 5.7925 5.6101 5.5825 5.93385C5.425 6.1701 5.27625 6.40635 5.13625 6.6601C4.095 8.4451 3.5 10.5276 3.5 12.7501C3.5 16.6176 6.6325 19.7501 10.5 19.7501C14.3675 19.7501 17.5 16.6176 17.5 12.7501C17.5 9.69635 16.555 6.86135 14.9537 4.4901ZM10.2462 17.1251C8.68875 17.1251 7.42875 15.9001 7.42875 14.3776C7.42875 12.9601 8.3475 11.9626 9.8875 11.6476C11.1737 11.3851 12.495 10.8339 13.4137 9.9676C13.6587 9.7401 14.0612 9.8451 14.1312 10.1689C14.3325 11.0614 14.4375 11.9889 14.4375 12.9251C14.4462 15.2439 12.565 17.1251 10.2462 17.1251Z" fill="#323232"/>
</svg>
