<svg width="23" height="20" viewBox="0 0 23 20" fill="none" xmlns="http://www.w3.org/2000/svg">
<path fill-rule="evenodd" clip-rule="evenodd" d="M22.3999 1.95408C22.3999 1.53496 22.2313 1.133 21.9313 0.83664C21.6312 0.540275 21.2242 0.373779 20.7999 0.373779C13.3018 0.373779 9.09795 0.373779 1.59988 0.373779C1.17553 0.373779 0.768566 0.540275 0.468508 0.83664C0.168449 1.133 -0.00012207 1.53496 -0.00012207 1.95408C-0.00012207 2.3732 0.168449 2.77516 0.468508 3.07152C0.768566 3.36789 1.17553 3.53438 1.59988 3.53438H20.7999C21.2242 3.53438 21.6312 3.36789 21.9313 3.07152C22.2313 2.77516 22.3999 2.3732 22.3999 1.95408ZM22.3999 9.8556C22.3999 9.43647 22.2313 9.03452 21.9313 8.73815C21.6312 8.44179 20.3756 8.27529 20.7999 8.27529C20.7999 8.27529 9.09795 8.27529 1.59988 8.27529C1.17553 8.27529 0.768566 8.44179 0.468508 8.73815C0.168449 9.03452 -0.00012207 9.43647 -0.00012207 9.8556C-0.00012207 10.2747 0.168449 10.6767 0.468508 10.973C0.768566 11.2694 1.17553 11.4359 1.59988 11.4359H20.7999C21.2242 11.4359 21.6312 11.2694 21.9313 10.973C22.2313 10.6767 22.3999 10.2747 22.3999 9.8556ZM22.3999 17.7571C22.3999 17.338 22.2313 16.936 21.9313 16.6397C21.6312 16.3433 21.2242 16.1768 20.7999 16.1768H11.1999C10.7755 16.1768 10.3686 16.3433 10.0685 16.6397C9.76846 16.936 9.59989 17.338 9.59989 17.7571C9.59989 18.1762 9.76846 18.5782 10.0685 18.8746C10.3686 19.1709 10.7755 19.3374 11.1999 19.3374H20.7999C21.2242 19.3374 21.6312 19.1709 21.9313 18.8746C22.2313 18.5782 22.3999 18.1762 22.3999 17.7571Z" fill="#6B7280" fill-opacity="0.8"/>
</svg>
