<svg width="33" height="34" viewBox="0 0 33 34" fill="none" xmlns="http://www.w3.org/2000/svg">
<path d="M8.25 18.375H24.75C25.5063 18.375 26.125 17.7562 26.125 17C26.125 16.2438 25.5063 15.625 24.75 15.625H8.25C7.49375 15.625 6.875 16.2438 6.875 17C6.875 17.7562 7.49375 18.375 8.25 18.375ZM5.5 23.875H22C22.7563 23.875 23.375 23.2563 23.375 22.5C23.375 21.7437 22.7563 21.125 22 21.125H5.5C4.74375 21.125 4.125 21.7437 4.125 22.5C4.125 23.2563 4.74375 23.875 5.5 23.875ZM9.625 11.5C9.625 12.2562 10.2438 12.875 11 12.875H27.5C28.2563 12.875 28.875 12.2562 28.875 11.5C28.875 10.7437 28.2563 10.125 27.5 10.125H11C10.2438 10.125 9.625 10.7437 9.625 11.5Z" fill="#323232"/>
</svg>
