<svg width="67" height="63" viewBox="0 0 67 63" fill="none" xmlns="http://www.w3.org/2000/svg">
<path d="M23.2847 12.0259H17.7805V24.9279H23.7574C26.292 24.9279 27.5976 22.9935 27.5976 21.0775C27.5976 19.8727 27.0489 18.5225 25.5357 17.9019C26.4434 17.245 26.8598 16.3145 26.8598 15.3839C26.8598 13.6867 25.4788 12.0259 23.2847 12.0259ZM23.247 17.245H19.6719V13.7779H23.2847C24.3629 13.7779 24.8733 14.5988 24.8733 15.4566C24.8733 16.3323 24.3061 17.245 23.247 17.245ZM23.7574 23.1396H19.6719V19.0697H23.7574C25.0438 19.0697 25.6871 20.0921 25.6871 21.0954C25.6871 22.0993 25.0438 23.1396 23.7574 23.1396Z" fill="black"/>
<path d="M17.4021 32.1624L42.4007 31.8957" stroke="black" stroke-width="3" stroke-linecap="round"/>
<path d="M41.6477 53H39.8864V40.017H36.7898C36.0038 40.017 35.3717 40.1378 34.8935 40.3793C34.4152 40.616 34.0672 40.9522 33.8494 41.3878C33.6316 41.8234 33.5227 42.3324 33.5227 42.9148C33.5227 43.4972 33.6293 43.9991 33.8423 44.4205C34.0601 44.8371 34.4058 45.1591 34.8793 45.3864C35.3575 45.6136 35.9848 45.7273 36.7614 45.7273H40.6818V47.3182H36.7045C35.5777 47.3182 34.652 47.1312 33.9276 46.7571C33.2031 46.3783 32.6657 45.8575 32.3153 45.1946C31.965 44.5317 31.7898 43.7718 31.7898 42.9148C31.7898 42.0578 31.965 41.2931 32.3153 40.6207C32.6657 39.9484 33.2055 39.4205 33.9347 39.0369C34.6638 38.6487 35.5966 38.4545 36.733 38.4545H41.6477V53ZM34.8011 46.4659H36.7898L33.267 53H31.2216L34.8011 46.4659Z" fill="black"/>
</svg>
